<?xml version="1.0" standalone="no"?>
<!DOCTYPE svg PUBLIC "-//W3C//DTD SVG 20010904//EN"
 "http://www.w3.org/TR/2001/REC-SVG-20010904/DTD/svg10.dtd">
<svg version="1.0" xmlns="http://www.w3.org/2000/svg"
 width="520.000000pt" height="480.000000pt" viewBox="0 0 520.000000 480.000000"
 preserveAspectRatio="xMidYMid meet">

<g transform="translate(0.000000,480.000000) scale(0.100000,-0.100000)"
fill="#ddddf7" stroke="none">
<path d="M1481 4540 c-131 -28 -219 -139 -257 -330 -13 -67 -16 -118 -11 -250
7 -222 49 -445 139 -733 16 -54 28 -101 25 -103 -3 -3 -52 -16 -110 -30 -553
-127 -933 -326 -1039 -542 -69 -139 -35 -277 100 -404 190 -179 487 -307 981
-422 83 -20 186 -40 229 -46 42 -5 147 -19 232 -30 85 -11 201 -23 257 -27 56
-3 106 -9 110 -12 5 -3 35 -44 68 -91 32 -47 108 -150 168 -230 l110 -144 -93
-90 c-52 -49 -141 -124 -198 -166 -295 -220 -521 -248 -636 -79 -31 44 -33 45
-66 36 -56 -14 -179 -3 -234 21 l-49 22 6 -127 c12 -245 75 -387 200 -447 243
-118 639 98 1121 612 l69 73 130 -136 c279 -292 543 -485 762 -556 98 -32 221
-32 287 0 96 46 160 139 195 278 26 105 23 370 -6 538 -25 146 -87 392 -125
504 -14 41 -24 76 -22 78 2 2 53 15 112 28 452 102 828 274 980 448 155 179
119 387 -97 553 -57 43 -186 124 -200 124 -3 0 -9 -22 -12 -48 -7 -63 -46
-148 -87 -196 l-33 -37 24 -51 c32 -70 33 -165 0 -226 -71 -137 -271 -266
-562 -362 -67 -22 -138 -43 -158 -46 l-36 -5 -34 88 c-19 48 -69 166 -113 261
-43 96 -78 176 -78 177 0 2 27 64 61 137 141 308 265 649 328 903 153 619 79
1027 -198 1086 -340 72 -959 -427 -1507 -1218 -37 -54 -72 -101 -77 -104 -4
-3 -54 -9 -111 -12 -83 -5 -215 -20 -440 -50 -22 -2 -40 54 -77 243 -33 166
-34 414 -2 516 41 129 117 200 227 211 l54 6 36 72 c25 51 54 89 96 128 l59
55 -42 25 c-183 107 -341 150 -456 127z m2037 -422 c65 -16 142 -94 171 -170
35 -97 46 -220 33 -362 -18 -194 -76 -447 -99 -433 -12 8 -323 45 -428 52 -49
3 -100 8 -111 10 -13 3 -43 36 -75 82 -70 102 -149 210 -221 302 -32 40 -58
79 -58 85 0 16 195 191 296 266 89 67 234 144 309 165 64 17 124 18 183 3z
m-784 -723 c96 -120 121 -154 114 -160 -3 -3 -117 -4 -253 -3 l-248 3 82 105
c45 58 103 129 128 159 l47 54 29 -34 c16 -19 61 -74 101 -124z m237 -336 c29
-15 225 -341 324 -539 l53 -106 -73 -141 c-70 -137 -164 -299 -251 -435 -39
-60 -46 -67 -86 -74 -54 -9 -619 -9 -673 0 -39 7 -44 12 -117 129 -98 158
-177 295 -240 421 l-50 100 42 86 c69 140 292 522 327 560 17 19 709 18 744
-1z m-1029 -161 c-43 -73 -98 -168 -121 -210 -23 -43 -46 -78 -50 -78 -8 0
-93 204 -131 314 -10 31 -15 58 -10 61 8 5 292 51 355 57 17 2 31 0 33 -4 2
-4 -32 -67 -76 -140z m1541 106 l99 -17 -6 -29 c-9 -46 -130 -341 -141 -345
-5 -1 -28 32 -50 74 -22 42 -77 137 -122 212 -44 75 -79 139 -77 142 4 7 145
-11 297 -37z m-1978 -199 c29 -71 74 -175 100 -230 84 -177 82 -145 18 -281
-31 -65 -82 -182 -114 -259 l-58 -140 -34 2 c-98 6 -420 136 -543 220 -75 52
-159 141 -184 195 -26 57 -26 149 0 206 40 89 159 191 310 267 133 67 390 157
433 152 14 -1 33 -36 72 -132z m316 -662 c23 -43 78 -137 121 -210 43 -72 78
-136 78 -141 0 -5 -28 -5 -67 0 -95 12 -317 49 -325 54 -12 8 127 374 143 374
4 0 27 -35 50 -77z m1687 -85 c34 -86 65 -170 68 -185 l6 -29 -94 -17 c-132
-23 -263 -39 -286 -35 -18 3 -11 18 61 139 45 75 100 170 122 212 22 42 45 75
50 74 6 -2 38 -74 73 -159z m161 -497 c94 -404 74 -675 -60 -795 -73 -65 -150
-80 -264 -51 -156 41 -317 145 -536 348 -98 92 -104 60 47 259 55 73 124 168
153 211 32 46 62 79 75 82 11 2 62 7 111 10 105 7 418 45 425 52 11 10 30 -35
49 -116z m-819 30 c0 -10 -84 -119 -180 -235 l-65 -78 -43 48 c-41 45 -190
234 -206 262 -6 9 46 12 243 12 138 0 251 -4 251 -9z"/>
<path d="M2515 2880 c-204 -41 -360 -214 -381 -422 -24 -240 156 -470 400
-510 172 -29 369 60 464 209 96 151 97 365 2 513 -103 160 -303 246 -485 210z"/>
<path d="M2103 4273 c-51 -18 -122 -83 -147 -136 -84 -179 47 -387 243 -387
104 1 185 47 239 139 24 40 27 56 27 131 0 75 -3 91 -27 132 -69 116 -208 167
-335 121z"/>
<path d="M4075 3126 c-89 -41 -145 -122 -153 -222 -17 -219 205 -363 398 -258
149 81 185 283 75 412 -77 89 -212 119 -320 68z"/>
<path d="M1322 1522 c-158 -57 -230 -228 -158 -376 48 -98 132 -150 241 -150
110 0 192 50 243 149 51 100 27 240 -55 316 -73 69 -181 93 -271 61z"/>
</g>
</svg>
